<mxfile host="app.diagrams.net" agent="Mozilla/5.0 (Windows NT 10.0; Win64; x64) AppleWebKit/537.36 (KHTML, like Gecko) Chrome/134.0.0.0 Safari/537.36" version="26.1.3">
  <diagram name="第 1 页" id="FBigIoBq4k7hd03uGM8j">
    <mxGraphModel dx="1434" dy="780" grid="1" gridSize="10" guides="1" tooltips="1" connect="1" arrows="1" fold="1" page="1" pageScale="1" pageWidth="827" pageHeight="1169" math="0" shadow="0">
      <root>
        <mxCell id="0" />
        <mxCell id="1" parent="0" />
        <mxCell id="MOJqOBOt8_sePO8w_FZh-1" value="" style="ellipse;whiteSpace=wrap;html=1;" vertex="1" parent="1">
          <mxGeometry x="230" y="270" width="120" height="80" as="geometry" />
        </mxCell>
        <mxCell id="MOJqOBOt8_sePO8w_FZh-5" value="" style="edgeStyle=entityRelationEdgeStyle;rounded=0;orthogonalLoop=1;jettySize=auto;html=1;startArrow=none;endArrow=none;segment=10;curved=1;sourcePerimeterSpacing=0;targetPerimeterSpacing=0;" edge="1" parent="1" source="MOJqOBOt8_sePO8w_FZh-2" target="MOJqOBOt8_sePO8w_FZh-4">
          <mxGeometry relative="1" as="geometry" />
        </mxCell>
        <mxCell id="MOJqOBOt8_sePO8w_FZh-2" value="Sub Topic" style="whiteSpace=wrap;html=1;rounded=1;arcSize=50;align=center;verticalAlign=middle;strokeWidth=1;autosize=1;spacing=4;treeFolding=1;treeMoving=1;newEdgeStyle={&quot;edgeStyle&quot;:&quot;entityRelationEdgeStyle&quot;,&quot;startArrow&quot;:&quot;none&quot;,&quot;endArrow&quot;:&quot;none&quot;,&quot;segment&quot;:10,&quot;curved&quot;:1,&quot;sourcePerimeterSpacing&quot;:0,&quot;targetPerimeterSpacing&quot;:0};" vertex="1" parent="1">
          <mxGeometry x="360" y="238" width="100" height="30" as="geometry" />
        </mxCell>
        <mxCell id="MOJqOBOt8_sePO8w_FZh-3" value="" style="edgeStyle=entityRelationEdgeStyle;startArrow=none;endArrow=none;segment=10;curved=1;sourcePerimeterSpacing=0;targetPerimeterSpacing=0;rounded=0;" edge="1" target="MOJqOBOt8_sePO8w_FZh-2" parent="1">
          <mxGeometry relative="1" as="geometry">
            <mxPoint x="330" y="280" as="sourcePoint" />
          </mxGeometry>
        </mxCell>
        <mxCell id="MOJqOBOt8_sePO8w_FZh-4" value="" style="whiteSpace=wrap;html=1;rounded=1;arcSize=50;strokeWidth=1;autosize=1;spacing=4;" vertex="1" parent="1">
          <mxGeometry x="350" y="113" width="120" height="60" as="geometry" />
        </mxCell>
        <mxCell id="MOJqOBOt8_sePO8w_FZh-6" value="" style="edgeStyle=orthogonalEdgeStyle;sourcePerimeterSpacing=0;targetPerimeterSpacing=0;startArrow=none;endArrow=none;rounded=0;targetPortConstraint=eastwest;sourcePortConstraint=northsouth;curved=0;rounded=0;" edge="1" target="MOJqOBOt8_sePO8w_FZh-8" parent="1">
          <mxGeometry relative="1" as="geometry">
            <mxPoint x="524" y="490" as="sourcePoint" />
          </mxGeometry>
        </mxCell>
        <mxCell id="MOJqOBOt8_sePO8w_FZh-7" value="" style="edgeStyle=orthogonalEdgeStyle;sourcePerimeterSpacing=0;targetPerimeterSpacing=0;startArrow=none;endArrow=none;rounded=0;targetPortConstraint=eastwest;sourcePortConstraint=northsouth;curved=0;rounded=0;" edge="1" target="MOJqOBOt8_sePO8w_FZh-9" parent="1">
          <mxGeometry relative="1" as="geometry">
            <mxPoint x="524" y="490" as="sourcePoint" />
            <Array as="points">
              <mxPoint x="525" y="490" />
              <mxPoint x="525" y="511" />
              <mxPoint x="524" y="511" />
              <mxPoint x="524" y="560" />
            </Array>
          </mxGeometry>
        </mxCell>
        <mxCell id="MOJqOBOt8_sePO8w_FZh-11" value="" style="edgeStyle=orthogonalEdgeStyle;rounded=0;orthogonalLoop=1;jettySize=auto;html=1;" edge="1" parent="1" source="MOJqOBOt8_sePO8w_FZh-8" target="MOJqOBOt8_sePO8w_FZh-10">
          <mxGeometry relative="1" as="geometry" />
        </mxCell>
        <mxCell id="MOJqOBOt8_sePO8w_FZh-8" value="Sub Section" style="whiteSpace=wrap;html=1;align=center;verticalAlign=middle;treeFolding=1;treeMoving=1;" vertex="1" parent="1">
          <mxGeometry x="330" y="525" width="100" height="60" as="geometry" />
        </mxCell>
        <mxCell id="MOJqOBOt8_sePO8w_FZh-13" value="" style="edgeStyle=orthogonalEdgeStyle;rounded=0;orthogonalLoop=1;jettySize=auto;html=1;" edge="1" parent="1" source="MOJqOBOt8_sePO8w_FZh-9" target="MOJqOBOt8_sePO8w_FZh-12">
          <mxGeometry relative="1" as="geometry" />
        </mxCell>
        <mxCell id="MOJqOBOt8_sePO8w_FZh-9" value="Sub Section" style="whiteSpace=wrap;html=1;align=center;verticalAlign=middle;treeFolding=1;treeMoving=1;" vertex="1" parent="1">
          <mxGeometry x="534" y="530" width="100" height="60" as="geometry" />
        </mxCell>
        <mxCell id="MOJqOBOt8_sePO8w_FZh-10" value="" style="ellipse;whiteSpace=wrap;html=1;" vertex="1" parent="1">
          <mxGeometry x="424" y="660" width="80" height="80" as="geometry" />
        </mxCell>
        <mxCell id="MOJqOBOt8_sePO8w_FZh-12" value="" style="whiteSpace=wrap;html=1;" vertex="1" parent="1">
          <mxGeometry x="524" y="670" width="120" height="60" as="geometry" />
        </mxCell>
      </root>
    </mxGraphModel>
  </diagram>
</mxfile>
